<svg width="158" height="67" viewBox="0 0 158 67" fill="none" xmlns="http://www.w3.org/2000/svg">
<path d="M2.5 36V31.05C4.63333 29.35 6.7 27.65 8.7 25.95C10.7333 24.25 12.55 22.5667 14.15 20.9C15.75 19.2 17.0167 17.55 17.95 15.95C18.8833 14.35 19.35 12.8 19.35 11.3C19.35 10.3667 19.1833 9.51667 18.85 8.75C18.5167 7.95 17.9833 7.31667 17.25 6.85C16.55 6.35 15.6167 6.1 14.45 6.1C13.2833 6.1 12.3 6.36666 11.5 6.9C10.7 7.43333 10.1 8.15 9.7 9.05C9.3 9.91667 9.1 10.9 9.1 12H2.55C2.65 9.43333 3.23333 7.28333 4.3 5.55C5.36667 3.81667 6.8 2.53333 8.6 1.7C10.4 0.833332 12.4167 0.399999 14.65 0.399999C17.1167 0.399999 19.2 0.866666 20.9 1.8C22.6 2.7 23.8833 3.93333 24.75 5.5C25.65 7.06667 26.1 8.86667 26.1 10.9C26.1 12.4333 25.8167 13.9333 25.25 15.4C24.7167 16.8667 23.95 18.3 22.95 19.7C21.9833 21.0667 20.8833 22.3833 19.65 23.65C18.4167 24.9167 17.1333 26.1333 15.8 27.3C14.4667 28.4333 13.1667 29.5 11.9 30.5H26.95V36H2.5ZM44.8074 36.6C42.2741 36.6 40.0741 36.15 38.2074 35.25C36.3741 34.35 34.9408 33.1167 33.9074 31.55C32.8741 29.9833 32.2741 28.2 32.1074 26.2H38.7074C38.9408 27.5 39.6074 28.6 40.7074 29.5C41.8074 30.4 43.1908 30.85 44.8574 30.85C46.0574 30.85 47.1074 30.55 48.0074 29.95C48.9074 29.35 49.6074 28.55 50.1074 27.55C50.6074 26.5167 50.8574 25.35 50.8574 24.05C50.8574 22.7167 50.5908 21.5667 50.0574 20.6C49.5574 19.6333 48.8574 18.8833 47.9574 18.35C47.0908 17.8167 46.0908 17.55 44.9574 17.55C43.5241 17.55 42.2908 17.9 41.2574 18.6C40.2574 19.2667 39.5408 20.0833 39.1074 21.05H32.5574L35.4574 0.999998H55.1074V6.9H40.4574L39.0074 14.7C39.7408 13.9333 40.7241 13.3167 41.9574 12.85C43.1908 12.35 44.5741 12.1 46.1074 12.1C48.0074 12.1 49.6574 12.4333 51.0574 13.1C52.4574 13.7333 53.6241 14.6167 54.5574 15.75C55.4908 16.85 56.1908 18.1167 56.6574 19.55C57.1241 20.95 57.3574 22.4333 57.3574 24C57.3574 25.8333 57.0408 27.5167 56.4074 29.05C55.8074 30.5833 54.9408 31.9167 53.8074 33.05C52.7074 34.1833 51.3908 35.0667 49.8574 35.7C48.3574 36.3 46.6741 36.6 44.8074 36.6ZM71.5609 32.95V10.15H77.3109V32.95H71.5609ZM62.2109 24.35V18.7H86.6109V24.35H62.2109Z" fill="white"/>
<path d="M4 63V59.064L0.224 51.8H2.672L5.312 57.336H4.88L7.504 51.8H9.936L6.16 59.064V63H4ZM13.6468 63.192C12.8361 63.192 12.1161 63.0213 11.4868 62.68C10.8681 62.328 10.3828 61.8427 10.0308 61.224C9.68942 60.5947 9.51875 59.8693 9.51875 59.048C9.51875 58.2053 9.68942 57.464 10.0308 56.824C10.3828 56.1733 10.8681 55.6667 11.4868 55.304C12.1054 54.9307 12.8254 54.744 13.6468 54.744C14.4468 54.744 15.1454 54.92 15.7428 55.272C16.3401 55.624 16.8041 56.0987 17.1348 56.696C17.4654 57.2933 17.6308 57.9707 17.6308 58.728C17.6308 58.8347 17.6308 58.9573 17.6308 59.096C17.6308 59.224 17.6201 59.3573 17.5988 59.496H11.0548V58.184H15.4548C15.4228 57.6613 15.2361 57.2507 14.8948 56.952C14.5641 56.6533 14.1481 56.504 13.6468 56.504C13.2841 56.504 12.9481 56.5893 12.6388 56.76C12.3294 56.92 12.0841 57.1707 11.9028 57.512C11.7321 57.8533 11.6468 58.2853 11.6468 58.808V59.272C11.6468 59.7093 11.7268 60.0933 11.8868 60.424C12.0574 60.744 12.2921 60.9947 12.5908 61.176C12.8894 61.3467 13.2361 61.432 13.6308 61.432C14.0254 61.432 14.3508 61.3467 14.6068 61.176C14.8734 61.0053 15.0708 60.7867 15.1988 60.52H17.4068C17.2574 61.0213 17.0068 61.4747 16.6548 61.88C16.3028 62.2853 15.8708 62.6053 15.3588 62.84C14.8468 63.0747 14.2761 63.192 13.6468 63.192ZM22.1198 63.192C21.4478 63.192 20.8931 63.0853 20.4557 62.872C20.0184 62.648 19.6931 62.3547 19.4798 61.992C19.2771 61.6187 19.1758 61.208 19.1758 60.76C19.1758 60.2693 19.2984 59.8373 19.5438 59.464C19.7998 59.0907 20.1784 58.7973 20.6798 58.584C21.1918 58.3707 21.8318 58.264 22.5998 58.264H24.5998C24.5998 57.8693 24.5464 57.544 24.4398 57.288C24.3331 57.0213 24.1678 56.824 23.9438 56.696C23.7198 56.568 23.4211 56.504 23.0477 56.504C22.6424 56.504 22.2958 56.5947 22.0078 56.776C21.7304 56.9467 21.5598 57.2133 21.4958 57.576H19.3997C19.4531 57 19.6398 56.504 19.9598 56.088C20.2904 55.6613 20.7224 55.3307 21.2558 55.096C21.7998 54.8613 22.4024 54.744 23.0638 54.744C23.8211 54.744 24.4771 54.872 25.0318 55.128C25.5864 55.384 26.0131 55.752 26.3118 56.232C26.6104 56.712 26.7598 57.304 26.7598 58.008V63H24.9358L24.6958 61.768C24.5784 61.9813 24.4398 62.1733 24.2798 62.344C24.1198 62.5147 23.9331 62.664 23.7198 62.792C23.5064 62.92 23.2664 63.016 22.9998 63.08C22.7331 63.1547 22.4398 63.192 22.1198 63.192ZM22.6318 61.528C22.9091 61.528 23.1544 61.48 23.3678 61.384C23.5918 61.2773 23.7838 61.1387 23.9438 60.968C24.1038 60.7867 24.2264 60.584 24.3118 60.36C24.4078 60.1253 24.4718 59.8747 24.5038 59.608V59.592H22.8558C22.5251 59.592 22.2531 59.6347 22.0398 59.72C21.8371 59.7947 21.6878 59.9067 21.5918 60.056C21.4958 60.2053 21.4478 60.376 21.4478 60.568C21.4478 60.7813 21.4958 60.9573 21.5918 61.096C21.6878 61.2347 21.8264 61.3413 22.0078 61.416C22.1891 61.4907 22.3971 61.528 22.6318 61.528ZM28.7747 63V54.936H30.6948L30.9028 56.424C31.0948 56.072 31.3348 55.7733 31.6228 55.528C31.9214 55.2827 32.2574 55.0907 32.6308 54.952C33.0148 54.8133 33.4361 54.744 33.8948 54.744V57.032H33.1588C32.8388 57.032 32.5401 57.0693 32.2628 57.144C31.9961 57.2187 31.7614 57.3413 31.5588 57.512C31.3561 57.672 31.2014 57.896 31.0948 58.184C30.9881 58.472 30.9348 58.8347 30.9348 59.272V63H28.7747ZM38.6176 63.192C37.8816 63.192 37.2416 63.0747 36.6976 62.84C36.1536 62.6053 35.727 62.28 35.4176 61.864C35.1083 61.448 34.9323 60.9787 34.8896 60.456H37.0336C37.087 60.6587 37.1776 60.8453 37.3056 61.016C37.4336 61.176 37.6043 61.304 37.8176 61.4C38.031 61.496 38.287 61.544 38.5856 61.544C38.8736 61.544 39.1083 61.5067 39.2896 61.432C39.471 61.3467 39.6043 61.2347 39.6896 61.096C39.7856 60.9573 39.8336 60.8133 39.8336 60.664C39.8336 60.44 39.7696 60.2693 39.6416 60.152C39.5136 60.024 39.327 59.9227 39.0816 59.848C38.8363 59.7733 38.5376 59.6987 38.1856 59.624C37.8016 59.5493 37.423 59.4587 37.0496 59.352C36.687 59.2347 36.3616 59.0907 36.0736 58.92C35.7856 58.7493 35.5563 58.5307 35.3856 58.264C35.215 57.9973 35.1296 57.6667 35.1296 57.272C35.1296 56.792 35.2576 56.3653 35.5136 55.992C35.7696 55.608 36.143 55.304 36.6336 55.08C37.1243 54.856 37.7163 54.744 38.4096 54.744C39.3803 54.744 40.1483 54.9627 40.7136 55.4C41.279 55.8373 41.615 56.44 41.7216 57.208H39.6896C39.6256 56.9627 39.4816 56.7707 39.2576 56.632C39.0443 56.4827 38.7563 56.408 38.3936 56.408C38.0096 56.408 37.7163 56.4773 37.5136 56.616C37.311 56.7547 37.2096 56.936 37.2096 57.16C37.2096 57.3093 37.2736 57.4427 37.4016 57.56C37.5403 57.6773 37.7323 57.7787 37.9776 57.864C38.223 57.9387 38.5216 58.0133 38.8736 58.088C39.4923 58.216 40.0363 58.3653 40.5056 58.536C40.975 58.696 41.343 58.9307 41.6096 59.24C41.8763 59.5387 42.0096 59.976 42.0096 60.552C42.0096 61.064 41.871 61.5227 41.5936 61.928C41.3163 62.3227 40.9216 62.632 40.4096 62.856C39.9083 63.08 39.311 63.192 38.6176 63.192ZM52.8189 63.192C51.7309 63.192 50.7709 62.9467 49.9389 62.456C49.1069 61.9653 48.4562 61.288 47.9869 60.424C47.5175 59.5493 47.2829 58.5413 47.2829 57.4C47.2829 56.2587 47.5175 55.256 47.9869 54.392C48.4562 53.5173 49.1069 52.8347 49.9389 52.344C50.7709 51.8533 51.7309 51.608 52.8189 51.608C53.9175 51.608 54.8829 51.8533 55.7149 52.344C56.5469 52.8347 57.1922 53.5173 57.6509 54.392C58.1202 55.256 58.3549 56.2587 58.3549 57.4C58.3549 58.5413 58.1202 59.5493 57.6509 60.424C57.1922 61.288 56.5469 61.9653 55.7149 62.456C54.8829 62.9467 53.9175 63.192 52.8189 63.192ZM52.8189 61.256C53.5015 61.256 54.0882 61.1013 54.5789 60.792C55.0802 60.472 55.4695 60.024 55.7469 59.448C56.0242 58.872 56.1629 58.1893 56.1629 57.4C56.1629 56.6 56.0242 55.9173 55.7469 55.352C55.4695 54.776 55.0802 54.3333 54.5789 54.024C54.0882 53.7147 53.5015 53.56 52.8189 53.56C52.1469 53.56 51.5602 53.7147 51.0589 54.024C50.5575 54.3333 50.1682 54.776 49.8909 55.352C49.6135 55.9173 49.4749 56.6 49.4749 57.4C49.4749 58.1893 49.6135 58.872 49.8909 59.448C50.1682 60.024 50.5575 60.472 51.0589 60.792C51.5602 61.1013 52.1469 61.256 52.8189 61.256ZM60.5178 63V54.216C60.5178 53.544 60.6298 53.0107 60.8538 52.616C61.0778 52.2213 61.3978 51.9333 61.8138 51.752C62.2404 51.5707 62.7364 51.48 63.3018 51.48H64.2938V53.32H63.6218C63.2804 53.32 63.0351 53.3893 62.8858 53.528C62.7471 53.656 62.6778 53.8853 62.6778 54.216V63H60.5178ZM59.4138 56.744V54.936H64.4218V56.744H59.4138ZM69.9009 63V51.8H77.2609V53.544H72.0609V56.472H76.7809V58.152H72.0609V61.256H77.2609V63H69.9009ZM78.429 63L81.325 58.968L78.429 54.936H80.765L82.701 57.704L84.637 54.936H86.957L84.061 58.968L86.957 63H84.637L82.701 60.216L80.765 63H78.429ZM88.3216 66.52V54.936H90.2416L90.4816 56.056C90.6523 55.8213 90.855 55.608 91.0896 55.416C91.3243 55.2133 91.6016 55.0533 91.9216 54.936C92.2523 54.808 92.6363 54.744 93.0736 54.744C93.831 54.744 94.4976 54.9307 95.0736 55.304C95.6496 55.6773 96.103 56.184 96.4336 56.824C96.775 57.4533 96.9456 58.1733 96.9456 58.984C96.9456 59.7947 96.775 60.52 96.4336 61.16C96.0923 61.7893 95.6336 62.2853 95.0576 62.648C94.4816 63.0107 93.8256 63.192 93.0896 63.192C92.4923 63.192 91.975 63.0853 91.5376 62.872C91.111 62.648 90.759 62.344 90.4816 61.96V66.52H88.3216ZM92.5776 61.304C93.0043 61.304 93.3776 61.208 93.6976 61.016C94.0283 60.824 94.2843 60.552 94.4656 60.2C94.647 59.848 94.7376 59.4427 94.7376 58.984C94.7376 58.5253 94.647 58.12 94.4656 57.768C94.2843 57.4053 94.0283 57.128 93.6976 56.936C93.3776 56.7333 93.0043 56.632 92.5776 56.632C92.1616 56.632 91.7883 56.7333 91.4576 56.936C91.1376 57.128 90.8816 57.4 90.6896 57.752C90.5083 58.104 90.4176 58.5093 90.4176 58.968C90.4176 59.4267 90.5083 59.8373 90.6896 60.2C90.8816 60.552 91.1376 60.824 91.4576 61.016C91.7883 61.208 92.1616 61.304 92.5776 61.304ZM102.678 63.192C101.867 63.192 101.147 63.0213 100.518 62.68C99.8993 62.328 99.414 61.8427 99.062 61.224C98.7207 60.5947 98.55 59.8693 98.55 59.048C98.55 58.2053 98.7207 57.464 99.062 56.824C99.414 56.1733 99.8993 55.6667 100.518 55.304C101.137 54.9307 101.857 54.744 102.678 54.744C103.478 54.744 104.177 54.92 104.774 55.272C105.371 55.624 105.835 56.0987 106.166 56.696C106.497 57.2933 106.662 57.9707 106.662 58.728C106.662 58.8347 106.662 58.9573 106.662 59.096C106.662 59.224 106.651 59.3573 106.63 59.496H100.086V58.184H104.486C104.454 57.6613 104.267 57.2507 103.926 56.952C103.595 56.6533 103.179 56.504 102.678 56.504C102.315 56.504 101.979 56.5893 101.67 56.76C101.361 56.92 101.115 57.1707 100.934 57.512C100.763 57.8533 100.678 58.2853 100.678 58.808V59.272C100.678 59.7093 100.758 60.0933 100.918 60.424C101.089 60.744 101.323 60.9947 101.622 61.176C101.921 61.3467 102.267 61.432 102.662 61.432C103.057 61.432 103.382 61.3467 103.638 61.176C103.905 61.0053 104.102 60.7867 104.23 60.52H106.438C106.289 61.0213 106.038 61.4747 105.686 61.88C105.334 62.2853 104.902 62.6053 104.39 62.84C103.878 63.0747 103.307 63.192 102.678 63.192ZM108.431 63V54.936H110.351L110.559 56.424C110.751 56.072 110.991 55.7733 111.279 55.528C111.578 55.2827 111.914 55.0907 112.287 54.952C112.671 54.8133 113.092 54.744 113.551 54.744V57.032H112.815C112.495 57.032 112.196 57.0693 111.919 57.144C111.652 57.2187 111.418 57.3413 111.215 57.512C111.012 57.672 110.858 57.896 110.751 58.184C110.644 58.472 110.591 58.8347 110.591 59.272V63H108.431ZM115.026 63V54.936H117.186V63H115.026ZM116.114 53.832C115.73 53.832 115.41 53.72 115.154 53.496C114.909 53.2613 114.786 52.968 114.786 52.616C114.786 52.264 114.909 51.976 115.154 51.752C115.41 51.5173 115.73 51.4 116.114 51.4C116.509 51.4 116.829 51.5173 117.074 51.752C117.33 51.976 117.458 52.264 117.458 52.616C117.458 52.968 117.33 53.2613 117.074 53.496C116.829 53.72 116.509 53.832 116.114 53.832ZM123.241 63.192C122.43 63.192 121.71 63.0213 121.081 62.68C120.462 62.328 119.977 61.8427 119.625 61.224C119.283 60.5947 119.113 59.8693 119.113 59.048C119.113 58.2053 119.283 57.464 119.625 56.824C119.977 56.1733 120.462 55.6667 121.081 55.304C121.699 54.9307 122.419 54.744 123.241 54.744C124.041 54.744 124.739 54.92 125.337 55.272C125.934 55.624 126.398 56.0987 126.729 56.696C127.059 57.2933 127.225 57.9707 127.225 58.728C127.225 58.8347 127.225 58.9573 127.225 59.096C127.225 59.224 127.214 59.3573 127.193 59.496H120.649V58.184H125.049C125.017 57.6613 124.83 57.2507 124.489 56.952C124.158 56.6533 123.742 56.504 123.241 56.504C122.878 56.504 122.542 56.5893 122.233 56.76C121.923 56.92 121.678 57.1707 121.497 57.512C121.326 57.8533 121.241 58.2853 121.241 58.808V59.272C121.241 59.7093 121.321 60.0933 121.481 60.424C121.651 60.744 121.886 60.9947 122.185 61.176C122.483 61.3467 122.83 61.432 123.225 61.432C123.619 61.432 123.945 61.3467 124.201 61.176C124.467 61.0053 124.665 60.7867 124.793 60.52H127.001C126.851 61.0213 126.601 61.4747 126.249 61.88C125.897 62.2853 125.465 62.6053 124.953 62.84C124.441 63.0747 123.87 63.192 123.241 63.192ZM128.993 63V54.936H130.898L131.058 56.248C131.303 55.8 131.65 55.4373 132.098 55.16C132.556 54.8827 133.1 54.744 133.73 54.744C134.402 54.744 134.967 54.8827 135.426 55.16C135.884 55.4373 136.231 55.8427 136.466 56.376C136.711 56.9093 136.834 57.5653 136.834 58.344V63H134.69V58.552C134.69 57.912 134.551 57.4213 134.274 57.08C134.007 56.7387 133.591 56.568 133.026 56.568C132.663 56.568 132.338 56.6533 132.049 56.824C131.772 56.9947 131.554 57.24 131.394 57.56C131.234 57.8693 131.154 58.248 131.154 58.696V63H128.993ZM142.773 63.192C141.962 63.192 141.242 63.0107 140.613 62.648C139.983 62.2853 139.493 61.7893 139.141 61.16C138.789 60.5307 138.613 59.8107 138.613 59C138.613 58.168 138.789 57.4373 139.141 56.808C139.493 56.168 139.983 55.6667 140.613 55.304C141.242 54.9307 141.962 54.744 142.773 54.744C143.807 54.744 144.677 55.016 145.381 55.56C146.085 56.104 146.533 56.8507 146.725 57.8H144.437C144.341 57.4267 144.138 57.1333 143.829 56.92C143.53 56.7067 143.173 56.6 142.757 56.6C142.383 56.6 142.047 56.696 141.749 56.888C141.461 57.0693 141.231 57.3413 141.061 57.704C140.901 58.056 140.821 58.4773 140.821 58.968C140.821 59.3413 140.869 59.6773 140.965 59.976C141.061 60.264 141.194 60.5147 141.365 60.728C141.535 60.9307 141.738 61.0853 141.973 61.192C142.218 61.2987 142.479 61.352 142.757 61.352C143.034 61.352 143.285 61.304 143.509 61.208C143.743 61.112 143.941 60.9787 144.101 60.808C144.261 60.6267 144.373 60.408 144.437 60.152H146.725C146.533 61.08 146.079 61.8213 145.365 62.376C144.661 62.92 143.797 63.192 142.773 63.192ZM152.459 63.192C151.649 63.192 150.929 63.0213 150.299 62.68C149.681 62.328 149.195 61.8427 148.843 61.224C148.502 60.5947 148.331 59.8693 148.331 59.048C148.331 58.2053 148.502 57.464 148.843 56.824C149.195 56.1733 149.681 55.6667 150.299 55.304C150.918 54.9307 151.638 54.744 152.459 54.744C153.259 54.744 153.958 54.92 154.555 55.272C155.153 55.624 155.617 56.0987 155.947 56.696C156.278 57.2933 156.443 57.9707 156.443 58.728C156.443 58.8347 156.443 58.9573 156.443 59.096C156.443 59.224 156.433 59.3573 156.411 59.496H149.867V58.184H154.267C154.235 57.6613 154.049 57.2507 153.707 56.952C153.377 56.6533 152.961 56.504 152.459 56.504C152.097 56.504 151.761 56.5893 151.451 56.76C151.142 56.92 150.897 57.1707 150.715 57.512C150.545 57.8533 150.459 58.2853 150.459 58.808V59.272C150.459 59.7093 150.539 60.0933 150.699 60.424C150.87 60.744 151.105 60.9947 151.403 61.176C151.702 61.3467 152.049 61.432 152.443 61.432C152.838 61.432 153.163 61.3467 153.419 61.176C153.686 61.0053 153.883 60.7867 154.011 60.52H156.219C156.07 61.0213 155.819 61.4747 155.467 61.88C155.115 62.2853 154.683 62.6053 154.171 62.84C153.659 63.0747 153.089 63.192 152.459 63.192Z" fill="white"/>
</svg>
